<?xml version="1.0" standalone="no"?>
<!DOCTYPE svg PUBLIC "-//W3C//DTD SVG 20010904//EN"
 "http://www.w3.org/TR/2001/REC-SVG-20010904/DTD/svg10.dtd">
<svg version="1.0" xmlns="http://www.w3.org/2000/svg"
 width="500.000000pt" height="500.000000pt" viewBox="0 0 500.000000 500.000000"
 preserveAspectRatio="xMidYMid meet">
<metadata>
Created by potrace 1.11, written by Peter Selinger 2001-2013
</metadata>
<g transform="translate(0.000000,500.000000) scale(0.100000,-0.100000)"
fill="#000000" stroke="none">
<path d="M0 2500 l0 -2500 2500 0 2500 0 0 2500 0 2500 -2500 0 -2500 0 0
-2500z m3650 1714 c69 -28 82 -93 30 -146 -28 -27 -35 -29 -73 -23 -23 4 -67
8 -97 8 -74 3 -156 -38 -286 -142 -102 -81 -212 -188 -183 -178 9 3 75 16 145
29 108 19 163 23 334 23 178 -1 217 -4 293 -23 296 -74 471 -215 532 -426 28
-96 17 -272 -25 -401 -81 -248 -269 -530 -544 -813 -504 -519 -1193 -876
-1918 -993 -63 -10 -78 -16 -78 -31 0 -38 42 -126 80 -167 49 -52 58 -82 36
-117 -33 -49 -107 -58 -154 -20 -41 35 -89 131 -111 222 -18 77 -19 79 -47 77
-16 -1 -155 -2 -309 -2 -501 -2 -635 27 -635 139 0 73 56 105 140 80 166 -50
435 -82 655 -78 l169 3 17 111 c41 280 212 741 429 1160 151 292 317 574 474
809 45 66 85 125 89 132 15 24 -165 -52 -374 -158 -300 -151 -519 -306 -720
-509 -142 -144 -163 -157 -219 -134 -36 15 -64 71 -54 109 9 36 217 207 409
335 256 172 664 386 953 500 l164 65 76 85 c128 144 325 335 391 379 144 98
308 136 411 95z"/>
<path d="M3320 3620 c-116 -9 -249 -30 -383 -61 l-89 -21 -46 -60 c-234 -300
-496 -715 -649 -1028 -226 -463 -348 -829 -379 -1132 -7 -67 -7 -68 18 -68 38
0 242 38 353 66 475 120 866 323 1269 660 385 321 691 768 747 1088 16 96 8
202 -21 262 -73 152 -288 267 -551 294 -109 11 -112 11 -269 0z"/>
</g>
</svg>
